<svg xmlns="http://www.w3.org/2000/svg" viewBox="0 0 1584 396" width="1584" height="396" role="img" aria-label="GembaOps LinkedIn banner">
  <style>@import url('https://fonts.googleapis.com/css2?family=Space+Grotesk:wght@500;700&amp;display=swap'); .wm{font-family:'Space Grotesk',sans-serif;font-weight:700} .tg{font-family:'Space Grotesk',sans-serif;font-weight:500}</style>
  <rect width="1584" height="396" fill="#0f1b2d"/>
  <g stroke="#f5a623" stroke-width="2" opacity="0.10">
    <line x1="1180" y1="360" x2="1584" y2="360"/>
    <line x1="1240" y1="300" x2="1584" y2="300"/>
    <line x1="1300" y1="240" x2="1584" y2="240"/>
    <line x1="1360" y1="180" x2="1584" y2="180"/>
    <line x1="1300" y1="396" x2="1430" y2="160"/>
    <line x1="1430" y1="396" x2="1500" y2="160"/>
    <line x1="1560" y1="396" x2="1570" y2="160"/>
  </g>
  <g transform="translate(96,118) scale(1.25)">
    <path d="M50 130 C 27 98 16 86 16 52 A 34 34 0 1 1 84 52 C 84 86 73 98 50 130 Z" fill="#f5a623"/>
    <line x1="31" y1="64" x2="69" y2="64" stroke="#0f1b2d" stroke-width="3" stroke-linecap="round"/>
    <rect x="35" y="56" width="8" height="8" rx="1.5" fill="#0f1b2d"/>
    <rect x="46" y="48" width="8" height="16" rx="1.5" fill="#0f1b2d"/>
    <rect x="57" y="38" width="8" height="26" rx="1.5" fill="#0f1b2d"/>
  </g>
  <text x="240" y="190" class="wm" font-size="72" fill="#ffffff">Gemba<tspan fill="#f5a623">Ops</tspan></text>
  <text x="244" y="240" class="tg" font-size="30" fill="#c4cedd">Automation, built on the floor.</text>
  <text x="244" y="288" class="tg" font-size="22" fill="#8d99ab">Rule-based workflows &amp; AI for manufacturers &amp; distributors · Long Island</text>
</svg>
